<?xml version="1.0" standalone="no"?>
<!DOCTYPE svg PUBLIC "-//W3C//DTD SVG 20010904//EN"
 "http://www.w3.org/TR/2001/REC-SVG-20010904/DTD/svg10.dtd">
<svg version="1.0" xmlns="http://www.w3.org/2000/svg"
 width="700.000000pt" height="700.000000pt" viewBox="0 0 700.000000 700.000000"
 preserveAspectRatio="xMidYMid meet">
<metadata>
Created by potrace 1.11, written by Peter Selinger 2001-2013
</metadata>
<g transform="translate(0.000000,700.000000) scale(0.100000,-0.100000)"
fill="#000000" stroke="none">
<path d="M959 6996 c-2 -2 -25 -7 -50 -10 -128 -17 -305 -109 -405 -210 -81
-82 -156 -208 -191 -322 -17 -56 -18 -179 -21 -2504 -1 -1571 1 -2466 7 -2505
16 -98 21 -116 44 -169 104 -246 329 -417 592 -451 53 -7 4254 -9 4261 -2 2 2
-23 91 -56 198 -34 107 -63 201 -65 209 -15 56 -64 210 -71 221 -6 11 -3 10
11 -1 18 -14 426 -362 490 -419 17 -14 59 -51 95 -81 36 -30 78 -67 95 -81 16
-15 158 -137 315 -270 157 -134 299 -256 315 -270 17 -15 98 -84 180 -154 83
-71 162 -140 178 -154 l27 -25 0 3160 c-1 3430 3 3215 -54 3356 -39 96 -87
167 -166 247 -71 72 -115 111 -125 111 -2 0 -20 11 -40 24 -19 14 -66 36 -103
50 -155 59 29 55 -2727 55 -1393 0 -2534 -1 -2536 -3z m1993 -1680 c7 -11 -51
-33 -138 -51 -92 -20 -434 -162 -519 -216 -25 -16 -48 -29 -51 -29 -9 0 -149
-98 -184 -129 l-35 -32 55 27 c267 130 690 251 980 280 30 3 84 10 120 14 69
9 578 6 620 -3 14 -3 50 -9 80 -12 222 -25 457 -81 705 -169 146 -52 192 -71
299 -122 66 -32 80 -30 31 3 -22 14 -42 29 -45 32 -5 7 -108 72 -171 110 -61
35 -208 107 -304 147 -98 40 -280 104 -298 104 -7 0 -18 4 -25 9 -11 6 -8 14
12 34 25 25 31 26 99 21 243 -18 574 -128 787 -262 164 -104 151 -90 222 -234
127 -255 223 -506 307 -798 32 -113 77 -303 86 -366 4 -21 8 -47 11 -56 6 -20
9 -40 18 -101 4 -27 9 -56 11 -66 2 -9 6 -47 9 -83 4 -37 9 -77 12 -90 2 -13
7 -97 10 -188 l7 -166 -89 -83 c-246 -232 -476 -342 -849 -406 -16 -3 -71 -8
-121 -11 l-91 -6 -49 59 c-27 33 -62 76 -79 97 -16 22 -34 44 -40 50 -5 6 -23
28 -38 49 l-28 37 26 10 c15 6 31 10 36 10 23 0 228 94 298 136 110 67 295
224 280 238 -2 2 -42 -18 -89 -46 -531 -309 -1054 -411 -1640 -319 -165 26
-209 36 -390 84 -154 42 -582 193 -588 209 -2 4 -10 8 -19 8 -8 0 -35 12 -59
26 -25 15 -47 25 -49 22 -8 -8 123 -134 199 -191 87 -64 261 -154 355 -183 34
-11 61 -22 61 -26 0 -5 -92 -121 -110 -138 -3 -3 -32 -38 -64 -79 l-59 -74
-99 7 c-55 3 -103 8 -106 10 -4 2 -29 7 -57 10 -185 25 -435 128 -593 245 -91
68 -141 115 -206 195 l-48 59 7 151 c6 152 7 174 26 321 12 101 16 130 36 235
19 109 18 103 38 185 9 39 19 80 21 93 10 51 96 334 132 437 60 170 140 357
212 500 l65 130 80 53 c255 168 584 288 845 309 41 3 77 7 79 9 5 5 45 -17 53
-30z"/>
<path d="M2775 4048 c-307 -42 -432 -435 -209 -661 146 -147 373 -147 520 -1
135 135 154 346 45 505 -48 69 -118 122 -189 143 -77 22 -97 24 -167 14z"/>
<path d="M4112 4048 c-113 -17 -215 -96 -270 -208 -67 -137 -58 -270 25 -396
111 -169 340 -218 507 -108 196 130 232 425 73 596 -86 93 -208 135 -335 116z"/>
</g>
</svg>
