<svg xmlns="http://www.w3.org/2000/svg" xmlns:xlink="http://www.w3.org/1999/xlink" x="0px" y="0px" viewBox="0 0 378.205 136.914" enable-background="new 0 0 378.205 136.914" xml:space="preserve">
<g>
	<polygon fill="#FFFFFF" points="0,78.405 39.202,117.607 39.202,78.405 20.491,77.347 	"></polygon>
	<polygon fill="#D3D2D2" points="0,78.405 39.202,78.405 20.111,58.253 0,39.203 	"></polygon>
	<polygon fill="#A8A5A6" points="0,39.203 39.202,78.405 40.261,57.478 39.202,39.203 22.476,38.143 	"></polygon>
	<polygon fill="#7C7A7A" points="39.202,78.404 39.202,39.203 55.905,38.143 78.403,39.203 	"></polygon>
	<polygon fill="#231F20" points="39.202,0 0,39.203 39.202,39.203 40.26,21.334 	"></polygon>
	<polygon fill="#504D4E" points="39.202,0 39.202,39.203 78.403,39.203 	"></polygon>
	<path fill="#EE1E59" d="M39.2,117.606v-0.002L0,78.404L39.2,117.606z M39.2,0L0,39.203L39.203,0H39.2z"></path>
	<polygon fill="#FF0055" points="0,78.405 39.2,117.605 39.2,78.405 	"></polygon>
	<polygon fill="#D30046" points="0,78.405 39.2,78.405 0,39.203 	"></polygon>
	<polygon fill="#A70037" points="0,39.203 39.202,78.405 39.202,78.402 39.202,39.203 	"></polygon>
	<polygon fill="#7B0028" points="78.402,39.203 39.202,39.203 39.202,78.403 	"></polygon>
	<path fill="#28000B" d="M0,39.203h39.202V0.002l-0.001-0.001L0,39.203z M39.2,0L39.2,0h0.002H39.2z"></path>
	<polygon fill="#4F001A" points="39.202,39.203 78.402,39.203 39.202,0.002 	"></polygon>
</g>
<g>
	<path fill="#FFFFFF" d="M115.601,63.076c-3.167-2.611-7.207-4.272-18.045-4.272H78.403v58.562h14.955V99.011h5.858
		c9.103,0,13.056-1.665,17.095-5.073c3.718-3.161,6.174-9.415,6.174-15.351C122.485,72.65,120.19,66.875,115.601,63.076z
		 M104.599,85.002c-1.976,0.865-4.355,0.865-5.778,0.865h-5.462V71.942h4.909c1.661,0,4.117,0,6.171,0.869
		c2.056,0.866,3.72,2.531,3.72,6.013C108.158,82.309,106.575,84.13,104.599,85.002z"></path>
	<path fill="#FFFFFF" d="M146.623,72.021c-15.987,0-23.661,12.581-23.661,23.266v0.077c0,10.764,7.674,23.352,23.661,23.352
		c15.989,0,23.665-12.588,23.665-23.352C170.288,84.602,162.612,72.021,146.623,72.021z M146.623,106.371
		c-5.697,0-10.525-4.67-10.525-11.008v-0.077c0-6.405,4.828-11.079,10.525-11.079c5.701,0,10.529,4.674,10.529,11.079
		C157.152,101.701,152.324,106.371,146.623,106.371z"></path>
	<rect x="174.56" y="58.804" fill="#FFFFFF" width="13.142" height="58.564"></rect>
	<polygon fill="#FFFFFF" points="222.288,73.445 213.9,98.927 204.954,73.445 190.949,73.445 207.253,115.153 200.288,132.01
		214.211,132.01 236.217,73.445 	"></polygon>
	<path fill="#FFFFFF" d="M270.249,77.561c-2.53-3.799-7.361-5.54-12.267-5.54c-11.395,0-22.159,8.627-22.159,23.664
		c0,14.083,10.211,23.108,22.159,23.108c6.885,0,10.686-3.721,12.189-6.251v2.612c0,7.591-5.697,10.682-10.684,10.682
		c-0.396,0-1.898,0-3.485-0.551c-1.504-0.56-3.245-1.666-4.194-3.804h-15.196c0.875,6.25,6.65,15.433,21.926,15.433
		c10.841,0,18.834-4.827,22.236-10.363c2.138-3.725,2.614-7.917,2.614-14.485V73.446h-13.14V77.561z M267.165,103.518
		c-1.902,1.9-4.433,3.009-7.677,3.009c-5.462,0-10.525-4.274-10.525-11.24v-0.077c0-6.412,4.982-10.919,10.603-10.919
		c3.483,0,6.173,1.265,7.916,3.401c1.821,2.055,2.768,4.98,2.768,8.231C270.092,99.011,268.984,101.618,267.165,103.518z"></path>
	<path fill="#FFFFFF" d="M311.166,72.021c-15.984,0-23.658,12.581-23.658,23.266v0.077c0,10.764,7.674,23.352,23.658,23.352
		c15.991,0,23.665-12.588,23.665-23.352C334.831,84.602,327.157,72.021,311.166,72.021z M311.166,106.371
		c-5.694,0-10.522-4.67-10.522-11.008v-0.077c0-6.405,4.828-11.079,10.522-11.079c5.704,0,10.532,4.674,10.532,11.079
		C321.698,101.701,316.87,106.371,311.166,106.371z"></path>
	<path fill="#FFFFFF" d="M361.899,71.942c-7.836,0-10.601,4.033-12.106,6.17v-4.667h-12.268v43.922h13.14v-23.9
		c0-4.509,1.029-9.176,7.516-9.176c5.861,0,6.889,4.271,6.889,9.093v23.983h13.136V89.903
		C378.205,83.969,376.699,71.942,361.899,71.942z"></path>
</g>
</svg>